<svg width="31" height="31" viewBox="0 0 31 31" fill="none" xmlns="http://www.w3.org/2000/svg">
<path d="M0.680568 17.2947C0.706363 17.6224 0.757954 17.95 0.83534 18.2525C0.861135 18.3785 0.88693 18.5046 0.912726 18.6306C1.09329 19.4876 1.35125 20.3194 1.71238 21.1008C1.76397 21.2268 1.81556 21.3528 1.86715 21.4536C1.99613 21.7309 2.12511 22.0082 2.27988 22.2854C2.35727 22.4115 2.40886 22.5375 2.48624 22.6635C2.64101 22.9408 2.82158 23.218 3.00215 23.4953C3.05374 23.5709 3.10533 23.6717 3.18272 23.7474C3.20851 23.7726 3.20851 23.7978 3.23431 23.823C3.2601 23.8482 3.2859 23.8734 3.2859 23.8986C3.69862 24.4783 4.16294 25.0329 4.67885 25.5622C4.67885 25.5622 4.70464 25.5874 4.70464 25.6126C4.73044 25.663 4.78203 25.6882 4.83362 25.7386C4.9368 25.8394 5.03998 25.9403 5.14316 26.0411C5.19475 26.0663 5.22055 26.1167 5.27214 26.1671L5.29794 26.1923C5.83964 26.6964 6.43293 27.1753 7.05202 27.6038C7.07782 27.629 7.10361 27.6543 7.12941 27.6543C7.51634 27.9063 7.92906 28.1332 8.31599 28.36C8.39338 28.4104 8.49656 28.4608 8.57395 28.486C8.88349 28.6625 9.21883 28.8137 9.55417 28.9397C9.65735 28.9902 9.73474 29.0154 9.83792 29.0658C10.6634 29.3934 11.5404 29.6707 12.4175 29.8472C12.5206 29.8724 12.6496 29.8976 12.7528 29.9228C13.0881 29.9732 13.4235 30.0488 13.7846 30.074C13.9136 30.0992 14.0426 30.0992 14.1715 30.1244C14.6359 30.1748 15.0744 30.2 15.5387 30.2C18.6599 30.2 21.549 29.2674 23.9222 27.6795C23.9222 27.6795 23.948 27.6795 23.948 27.6543C24.3091 27.4274 24.6445 27.1753 24.9798 26.8981C25.0314 26.8477 25.083 26.8225 25.1346 26.772C25.3667 26.5704 25.5989 26.3688 25.831 26.1419L25.9342 26.0411C26.0374 25.9403 26.1406 25.8394 26.2438 25.7386L26.3727 25.6126C26.5017 25.4866 26.6049 25.3353 26.7339 25.2093C26.8629 25.0581 27.0176 24.932 27.1208 24.7556C27.3788 24.4531 27.6109 24.1507 27.8431 23.823C27.8431 23.823 27.8431 23.7978 27.8689 23.7978C29.5198 21.4536 30.5 18.6054 30.5 15.5303C30.5 15.0766 30.4742 14.6229 30.4226 14.1944C30.4226 14.0684 30.3968 13.9423 30.371 13.8163C30.3194 13.4886 30.2678 13.1357 30.2163 12.8081C30.1905 12.7072 30.1647 12.5812 30.1389 12.4804C29.9583 11.6234 29.6745 10.7664 29.3392 9.95981C29.2876 9.85899 29.2618 9.78337 29.2102 9.68255C29.0555 9.35488 28.9007 9.05241 28.7459 8.72473C28.6943 8.64911 28.6685 8.54829 28.6169 8.47267C28.3848 8.06938 28.1526 7.6913 27.8947 7.31321C27.8689 7.288 27.8431 7.2628 27.8173 7.23759C27.6367 6.98553 27.4304 6.73348 27.2498 6.48142C27.2498 6.45621 27.2498 6.45621 27.224 6.43101C27.1982 6.4058 27.1724 6.3806 27.1724 6.35539C26.5017 5.5236 25.7279 4.79263 24.8766 4.11208C24.8508 4.08687 24.825 4.06167 24.7992 4.06167C24.7992 4.06167 24.7734 4.06167 24.7476 4.03646C24.5155 3.86002 24.2833 3.68358 24.0512 3.53235C24.0254 3.50714 23.9996 3.48193 23.9738 3.48193C23.948 3.45673 23.9222 3.45673 23.8964 3.43152C23.819 3.38111 23.7158 3.3307 23.6384 3.28029C23.3547 3.10385 23.0709 2.92741 22.7614 2.77617C22.6324 2.70056 22.5034 2.65014 22.3745 2.57453C22.0907 2.42329 21.807 2.29726 21.5232 2.17124C21.3942 2.12082 21.2911 2.07041 21.1621 2.02C20.3366 1.69233 19.4854 1.44027 18.6083 1.23862C18.4794 1.21342 18.3504 1.18821 18.2214 1.16301C17.8861 1.11259 17.5507 1.06218 17.2154 1.01177C17.0864 0.986565 16.9574 0.986565 16.8027 0.961359C16.3383 0.910948 15.8998 0.885742 15.4355 0.885742C12.2885 0.885742 9.3736 1.84356 6.97463 3.45673C6.97463 3.45673 6.94884 3.45673 6.94884 3.48193C6.66509 3.65838 6.40714 3.86002 6.14918 4.06167C6.12339 4.08687 6.09759 4.08687 6.09759 4.11208C5.24635 4.76743 4.49828 5.5236 3.80181 6.35539C3.77601 6.3806 3.75021 6.4058 3.75021 6.4058C3.51806 6.68307 3.2859 6.96033 3.07954 7.2628V7.288C1.45443 9.63214 0.5 12.4552 0.5 15.5051C0.5 15.9588 0.525795 16.4125 0.577386 16.841C0.654772 17.0174 0.654772 17.1687 0.680568 17.2947ZM7.61952 25.4361C7.28418 25.1589 6.94884 24.8816 6.6135 24.6044L6.27816 24.2767C5.99441 23.9994 5.71066 23.6969 5.45271 23.3693L9.47678 19.4372C10.0443 20.269 10.7666 20.9747 11.6178 21.504L7.61952 25.4361ZM10.4054 15.5555C10.4054 14.9506 10.5344 14.3708 10.715 13.8415C10.7666 13.6651 10.8439 13.5138 10.9213 13.3626C10.9987 13.2114 11.0761 13.0601 11.1793 12.9089C11.7726 12.0015 12.6238 11.3209 13.6556 10.9176C14.2231 10.6908 14.8422 10.59 15.4871 10.59C15.6419 10.59 15.8224 10.59 15.9772 10.6152C16.0804 10.6152 16.1836 10.6404 16.2868 10.6656C16.3383 10.6656 16.3899 10.6908 16.4415 10.6908C16.5705 10.716 16.7253 10.7412 16.8543 10.7916C16.8543 10.7916 16.8801 10.7916 16.9058 10.7916C17.0606 10.842 17.1896 10.8672 17.3444 10.9428C18.7373 11.4722 19.8207 12.5308 20.3366 13.8919C20.3882 14.0179 20.4398 14.1692 20.4656 14.2952V14.3204C20.4914 14.4464 20.5172 14.5725 20.543 14.6985C20.543 14.7489 20.5688 14.7993 20.5688 14.8497C20.5946 14.9506 20.5946 15.0514 20.6204 15.127C20.6462 15.2782 20.6462 15.4295 20.6462 15.5807C20.6462 16.2108 20.5172 16.8158 20.3108 17.3703C19.9239 18.3785 19.2016 19.2355 18.273 19.7901C18.1182 19.8909 17.9635 19.9665 17.8087 20.0421C17.6539 20.1177 17.4733 20.1933 17.3186 20.2438C16.7769 20.4454 16.1836 20.5462 15.5645 20.5462C15.4097 20.5462 15.2549 20.5462 15.1002 20.521C14.997 20.521 14.9196 20.4958 14.8164 20.4706C14.7648 20.4706 14.7132 20.4454 14.6616 20.4454C14.5327 20.4202 14.4037 20.395 14.2747 20.3698H14.2489C14.1199 20.3194 13.9652 20.2942 13.8362 20.2438C12.4432 19.7396 11.334 18.681 10.8181 17.3199C10.7666 17.1687 10.715 17.0426 10.6634 16.8914V16.8662C10.6376 16.7402 10.586 16.6141 10.5602 16.4629C10.5602 16.4125 10.5344 16.3621 10.5344 16.3117C10.5086 16.2108 10.5086 16.11 10.4828 16.0092C10.4054 15.8832 10.4054 15.7067 10.4054 15.5555ZM15.5387 28.1332C15.1518 28.1332 14.739 28.108 14.3521 28.0827C14.2747 28.0827 14.1973 28.0575 14.1199 28.0575C13.733 28.0071 13.3719 27.9567 13.0107 27.8811C12.9592 27.8811 12.9076 27.8559 12.8302 27.8559C12.469 27.7803 12.1337 27.7047 11.7726 27.6038C11.7468 27.6038 11.721 27.5786 11.6694 27.5786C11.3083 27.4778 10.9471 27.3266 10.586 27.2005C10.5344 27.1753 10.4828 27.1501 10.4312 27.1249C10.0701 26.9737 9.73474 26.8225 9.3736 26.6208L13.6814 22.4115C13.7072 22.4115 13.733 22.4115 13.7588 22.4115C13.991 22.4619 14.2489 22.5123 14.4811 22.5627C14.5327 22.5627 14.6101 22.5879 14.6616 22.5879C14.9454 22.6131 15.2291 22.6383 15.5129 22.6383C16.1578 22.6383 16.7511 22.5627 17.3444 22.4115L21.6522 26.6208C19.8465 27.5786 17.7571 28.1332 15.5387 28.1332ZM25.5473 23.4449C25.3925 23.6213 25.2377 23.7978 25.083 23.949C24.9798 24.0498 24.8766 24.1759 24.7734 24.2767L24.4639 24.5791C24.2575 24.7808 24.0512 24.9824 23.819 25.1589C23.7674 25.2093 23.69 25.2597 23.6384 25.3101C23.5868 25.3605 23.5353 25.3857 23.4837 25.4361L19.4338 21.504C19.4338 21.504 19.4596 21.504 19.4596 21.4788C19.6402 21.3528 19.8207 21.2268 20.0013 21.1008C20.0271 21.0755 20.0529 21.0756 20.0529 21.0503C20.6462 20.5966 21.1363 20.0421 21.5748 19.4372L25.5989 23.3693C25.5731 23.3945 25.5731 23.4197 25.5473 23.4449ZM26.8371 9.55652C27.0176 9.8842 27.1982 10.2371 27.353 10.59C27.3788 10.6404 27.4046 10.6908 27.4304 10.7412C27.5851 11.0941 27.7141 11.447 27.8173 11.7998C27.8173 11.825 27.8431 11.8502 27.8431 11.9007C27.9463 12.2283 28.0494 12.5812 28.1268 12.9341C28.1268 12.9845 28.1526 13.0349 28.1526 13.1105C28.23 13.4634 28.2816 13.8415 28.3332 14.1944C28.3332 14.27 28.359 14.3456 28.359 14.4212C28.3848 14.7993 28.4106 15.1774 28.4106 15.5807C28.4106 17.7736 27.8173 19.8405 26.8113 21.6553L22.5034 17.4459C22.684 16.841 22.7614 16.2108 22.7614 15.5555C22.7614 15.2782 22.7356 14.9758 22.7098 14.6985C22.7098 14.6481 22.684 14.5977 22.684 14.5473C22.6582 14.2952 22.6066 14.0684 22.5292 13.8163C22.5292 13.7911 22.5292 13.7659 22.5292 13.7659L26.8371 9.55652ZM23.5353 5.72525L25.5989 7.74171C25.6247 7.76691 25.6247 7.76691 25.6505 7.79212L21.6264 11.7494C21.0847 10.9176 20.3624 10.2119 19.5112 9.65734L23.5353 5.72525ZM15.5387 2.97782C15.9256 2.97782 16.3383 3.00303 16.7253 3.02823C16.8027 3.02823 16.8801 3.05344 16.9574 3.05344C17.3444 3.10385 17.7055 3.15426 18.0666 3.22988C18.1182 3.22988 18.1956 3.25508 18.2472 3.28029C18.5825 3.35591 18.8921 3.43152 19.2274 3.53235C19.279 3.55755 19.3564 3.55755 19.408 3.58276C19.7691 3.68358 20.1045 3.80961 20.4398 3.96084C20.5172 3.98605 20.5946 4.03646 20.672 4.06167C20.9557 4.1877 21.2653 4.31372 21.549 4.46496C21.6006 4.49016 21.6522 4.51537 21.7038 4.54058C21.7296 4.54058 21.7296 4.56578 21.7554 4.56578L17.4733 8.74994C17.4475 8.74994 17.4218 8.74994 17.396 8.72473C17.138 8.64911 16.8801 8.5987 16.6221 8.5735C16.5447 8.5735 16.4931 8.54829 16.4157 8.54829C16.132 8.52309 15.8224 8.49788 15.5129 8.49788C14.8422 8.49788 14.1973 8.5987 13.5782 8.74994L9.32201 4.56578C11.1793 3.55755 13.2945 2.97782 15.5387 2.97782ZM5.4785 7.76691L7.56793 5.72525L11.592 9.65734C10.9729 10.0606 10.4054 10.5648 9.9411 11.1445C9.9153 11.1697 9.9153 11.1949 9.88951 11.1949C9.76053 11.3713 9.63156 11.5478 9.50258 11.7242C9.50258 11.7242 9.50258 11.7494 9.47678 11.7494L5.42691 7.81732C5.45271 7.79212 5.45271 7.76691 5.4785 7.76691ZM4.24033 9.55652L8.54815 13.7659C8.39338 14.3456 8.31599 14.9253 8.31599 15.5555C8.31599 15.858 8.34179 16.1352 8.36758 16.4377C8.36758 16.5133 8.39338 16.5637 8.39338 16.6393C8.44497 16.8914 8.49656 17.1435 8.54815 17.3955C8.54815 17.4207 8.54815 17.4459 8.57395 17.4711L4.29192 21.6301C4.29192 21.6049 4.26612 21.6049 4.26612 21.5797C4.24033 21.5293 4.21453 21.4788 4.18874 21.4032C4.03396 21.126 3.90499 20.8487 3.77601 20.5714C3.75021 20.4958 3.69862 20.4202 3.67283 20.3446C3.54385 20.0169 3.41488 19.6892 3.2859 19.3364C3.2601 19.2607 3.2601 19.2103 3.23431 19.1347C3.13113 18.8322 3.05374 18.5046 2.97635 18.2021C2.95056 18.1517 2.95056 18.0761 2.92476 18.0257C2.84738 17.6728 2.79579 17.3199 2.7442 16.9418C2.7442 16.8662 2.7184 16.7906 2.7184 16.6897C2.69261 16.3117 2.66681 15.9336 2.66681 15.5303C2.66681 13.3878 3.23431 11.3461 4.24033 9.55652Z" fill="#0F4343"/>
</svg>
