<svg width="33" height="32" viewBox="0 0 33 32" fill="none" xmlns="http://www.w3.org/2000/svg">
<path d="M25.2836 11.7987C26.7707 10.7349 27.7517 8.89667 27.7517 6.82018C27.7517 3.53524 25.3069 0.863037 22.3016 0.863037C19.2963 0.863037 16.8516 3.53524 16.8516 6.82018C16.8516 8.90518 17.8404 10.7434 19.3274 11.8072C18.5956 12.0795 17.8871 12.4539 17.2253 12.922C16.8671 13.1773 16.7659 13.7049 16.9995 14.0964C17.2331 14.4879 17.7158 14.5985 18.0817 14.3432C19.343 13.4411 20.8068 12.956 22.3094 12.956C26.5994 12.956 30.0952 16.8282 30.0952 21.5939C30.0952 22.0449 30.0563 22.513 29.9784 23.0321C29.9084 23.4917 30.1964 23.9342 30.6169 24.0108C30.6636 24.0108 30.7025 24.0193 30.7492 24.0193C31.1229 24.0193 31.45 23.7214 31.52 23.3044C31.6135 22.6917 31.6602 22.13 31.6602 21.5854C31.6602 17.0324 28.9818 13.1688 25.2836 11.7901V11.7987ZM22.3016 11.0753C20.1527 11.0753 18.4087 9.169 18.4087 6.82018C18.4087 4.47136 20.1527 2.56508 22.3016 2.56508C24.4505 2.56508 26.1945 4.47136 26.1945 6.82018C26.1945 9.169 24.4505 11.0753 22.3016 11.0753Z" fill="#7A182F" stroke="#7A182F"/>
<path d="M9.85075 12.956C11.3612 12.956 12.8249 13.4326 14.0784 14.3432C14.4366 14.5985 14.9193 14.4964 15.1607 14.0964C15.3942 13.7049 15.3008 13.1773 14.9349 12.922C14.2731 12.4454 13.5724 12.0795 12.8327 11.8072C14.3198 10.7434 15.3086 8.90518 15.3086 6.82018C15.3086 3.53524 12.8639 0.863037 9.85854 0.863037C6.85322 0.863037 4.40848 3.53524 4.40848 6.82018C4.40848 8.90518 5.39727 10.7349 6.87658 11.7987C3.17832 13.1773 0.5 17.0409 0.5 21.5939C0.5 22.1385 0.546715 22.7002 0.640145 23.313C0.702431 23.73 1.02943 24.0278 1.41094 24.0278C1.44987 24.0278 1.49658 24.0278 1.5433 24.0193C1.96373 23.9427 2.25181 23.5002 2.18173 23.0406C2.10388 22.5215 2.06495 22.0449 2.06495 21.6024C2.06495 16.8452 5.56077 12.9645 9.85075 12.9645V12.956ZM5.96564 6.82018C5.96564 4.47136 7.70966 2.56508 9.85854 2.56508C12.0074 2.56508 13.7514 4.47136 13.7514 6.82018C13.7514 9.169 12.0074 11.0753 9.85854 11.0753C7.70966 11.0753 5.96564 9.169 5.96564 6.82018Z" fill="#7A182F" stroke="#7A182F"/>
<path d="M22.8296 17.6538H9.32903C8.83853 17.6538 8.37916 17.9006 8.0833 18.3346C7.78744 18.7686 7.69401 19.3048 7.82637 19.8239L8.93974 24.079C9.1266 24.8024 9.74168 25.313 10.4346 25.313H21.7163C22.4092 25.313 23.0243 24.8024 23.2111 24.079L24.3245 19.8239C24.4569 19.3048 24.3712 18.7601 24.0676 18.3346C23.7639 17.9091 23.3201 17.6538 22.8218 17.6538H22.8296ZM21.7163 23.611H10.4346L9.32125 19.3558H22.8296L21.7163 23.611Z" fill="#7A182F" stroke="#7A182F"/>
<path d="M22.3098 27.0149C21.8816 27.0149 21.5312 27.3979 21.5312 27.8659V30.3424C21.5312 30.8104 21.8816 31.1934 22.3098 31.1934C22.738 31.1934 23.0884 30.8104 23.0884 30.3424V27.8659C23.0884 27.3979 22.738 27.0149 22.3098 27.0149Z" fill="#7A182F" stroke="#7A182F"/>
<path d="M9.85085 27.0149C9.42263 27.0149 9.07227 27.3979 9.07227 27.8659V30.3424C9.07227 30.8104 9.42263 31.1934 9.85085 31.1934C10.2791 31.1934 10.6294 30.8104 10.6294 30.3424V27.8659C10.6294 27.3979 10.2791 27.0149 9.85085 27.0149Z" fill="#7A182F" stroke="#7A182F"/>
</svg>
