<svg width="36" height="40" viewBox="0 0 36 40" fill="none" xmlns="http://www.w3.org/2000/svg">
<path d="M17.713 0.00396573C17.4897 0.0245925 17.2821 0.125544 17.1302 0.287366C16.9783 0.449187 16.8929 0.660424 16.8903 0.880366L16.791 4.24686C16.7882 4.36377 16.8089 4.48009 16.852 4.58915C16.895 4.69822 16.9595 4.7979 17.0419 4.88251C17.1242 4.96712 17.2227 5.035 17.3318 5.08228C17.4408 5.12955 17.5583 5.15529 17.6775 5.15803C17.7968 5.16077 17.9154 5.14046 18.0266 5.09825C18.1378 5.05604 18.2394 4.99276 18.3257 4.91202C18.412 4.83129 18.4812 4.73468 18.5294 4.62771C18.5776 4.52074 18.6038 4.40551 18.6066 4.28859L18.7059 0.922099C18.7105 0.795501 18.6875 0.669398 18.6385 0.552213C18.5894 0.435027 18.5154 0.329458 18.4214 0.242555C18.3274 0.155652 18.2156 0.0894161 18.0935 0.0482722C17.9713 0.00712827 17.8416 -0.00797681 17.713 0.00396573ZM7.21656 4.91459C7.04289 4.92626 6.8763 4.98665 6.73664 5.08857C6.59698 5.19049 6.49014 5.32963 6.42885 5.48943C6.36757 5.64923 6.35441 5.82293 6.39096 5.98985C6.42751 6.15677 6.51222 6.30987 6.635 6.4309L8.13854 7.97504C8.21639 8.07374 8.31453 8.15529 8.42658 8.2144C8.53864 8.27351 8.66211 8.30887 8.78899 8.31817C8.91587 8.32747 9.04333 8.31051 9.1631 8.2684C9.28287 8.22628 9.39227 8.15994 9.48422 8.07369C9.57617 7.98743 9.6486 7.88319 9.69682 7.76771C9.74505 7.65224 9.76798 7.52811 9.76414 7.40338C9.76031 7.27866 9.72978 7.15611 9.67454 7.0437C9.6193 6.93129 9.54059 6.83152 9.44351 6.75086L7.95415 5.20672C7.86188 5.10632 7.74751 5.02783 7.61971 4.97722C7.49192 4.9266 7.35405 4.90518 7.21656 4.91459ZM28.2662 4.91459C28.027 4.92741 27.8027 5.03241 27.6421 5.20672L26.1527 6.75086C26.0556 6.83152 25.9769 6.93129 25.9217 7.0437C25.8665 7.15611 25.8359 7.27866 25.8321 7.40338C25.8282 7.52811 25.8512 7.65224 25.8994 7.76771C25.9476 7.88319 26.0201 7.98743 26.112 8.07369C26.204 8.15994 26.3134 8.22628 26.4331 8.2684C26.5529 8.31051 26.6804 8.32747 26.8072 8.31817C26.9341 8.30887 27.0576 8.27351 27.1696 8.2144C27.2817 8.15529 27.3798 8.07374 27.4577 7.97504L28.9612 6.4309C29.0906 6.30311 29.1774 6.13986 29.2102 5.96269C29.243 5.78552 29.2203 5.60276 29.145 5.43852C29.0697 5.27429 28.9454 5.13629 28.7885 5.04276C28.6316 4.94922 28.4495 4.90453 28.2662 4.91459ZM17.7981 6.63957C12.1593 6.63957 7.61372 11.1874 7.61372 16.753C7.61372 19.1228 8.63346 21.0996 9.67046 22.8182C11.3159 25.5452 11.515 26.948 11.5144 27.6593C11.5141 28.0149 11.4075 28.1075 11.4577 28.6052C11.4828 28.8541 11.76 29.3345 12.0818 29.4816C12.4036 29.6287 12.5997 29.6207 12.8052 29.6207H22.791C22.9965 29.6207 23.1927 29.6287 23.5144 29.4816C23.8362 29.3345 24.1134 28.8541 24.1385 28.6052C24.1888 28.1075 24.0821 28.0149 24.0818 27.6593C24.0812 26.948 24.2803 25.5452 25.9258 22.8182C26.9628 21.0996 27.9825 19.1228 27.9825 16.753C27.9825 11.1874 23.437 6.63957 17.7981 6.63957ZM17.7981 8.42019C22.4468 8.42019 26.1669 12.131 26.1669 16.753C26.1669 18.6193 25.3533 20.2769 24.3655 21.914C22.6093 24.8245 22.2654 26.602 22.2662 27.6593C22.2663 27.782 22.2771 27.7342 22.2804 27.8401H13.3158C13.3191 27.7342 13.3299 27.782 13.33 27.6593C13.3309 26.602 12.9869 24.8245 11.2307 21.914C10.2429 20.2769 9.42932 18.6193 9.42932 16.753C9.42932 12.131 13.1494 8.42019 17.7981 8.42019ZM1.38677 13.3169C1.26756 13.3196 1.15006 13.3454 1.04099 13.3927C0.931923 13.4399 0.833415 13.5078 0.751093 13.5924C0.668772 13.677 0.604249 13.7767 0.56121 13.8858C0.51817 13.9949 0.497455 14.1112 0.500249 14.2281C0.503043 14.345 0.529291 14.4602 0.577494 14.5672C0.625696 14.6742 0.69491 14.7708 0.781183 14.8515C0.867456 14.9323 0.969098 14.9955 1.08031 15.0377C1.19152 15.08 1.31011 15.1003 1.42933 15.0975L4.89032 15.1949C5.00953 15.1976 5.12813 15.1773 5.23934 15.1351C5.35055 15.0929 5.45219 15.0296 5.53846 14.9489C5.62474 14.8682 5.69395 14.7715 5.74215 14.6646C5.79035 14.5576 5.8166 14.4424 5.8194 14.3255C5.82219 14.2085 5.80148 14.0922 5.75844 13.9832C5.7154 13.8741 5.65087 13.7744 5.56855 13.6898C5.48623 13.6052 5.38772 13.5373 5.27865 13.49C5.16958 13.4428 5.05209 13.417 4.93287 13.4143L1.48606 13.3169C1.45299 13.3151 1.41985 13.3151 1.38677 13.3169ZM34.1102 13.3169L30.6634 13.4143C30.4226 13.4198 30.1939 13.5189 30.0277 13.6898C29.8614 13.8607 29.7712 14.0893 29.7768 14.3255C29.7825 14.5616 29.8835 14.7858 30.0578 14.9489C30.232 15.1119 30.4651 15.2004 30.7059 15.1949L34.1669 15.0975C34.4077 15.0901 34.6356 14.9893 34.8005 14.8171C34.9654 14.6449 35.0539 14.4155 35.0463 14.1794C35.0388 13.9433 34.936 13.7197 34.7604 13.558C34.5848 13.3962 34.3509 13.3095 34.1102 13.3169ZM21.4293 13.929C21.1901 13.9418 20.9658 14.0468 20.8052 14.2211L16.5357 18.7979L14.8761 17.4624C14.7846 17.3829 14.6777 17.3224 14.5618 17.2844C14.4459 17.2464 14.3233 17.2317 14.2015 17.2413C14.0797 17.2509 13.961 17.2845 13.8528 17.3401C13.7445 17.3958 13.6488 17.4723 13.5714 17.565C13.494 17.6578 13.4365 17.765 13.4023 17.8801C13.3682 17.9952 13.3581 18.1158 13.3726 18.2349C13.3872 18.3539 13.4261 18.4688 13.487 18.5727C13.5479 18.6766 13.6296 18.7674 13.7272 18.8396L16.0393 20.7176C16.2185 20.8633 16.448 20.9359 16.6804 20.9204C16.9127 20.9049 17.13 20.8024 17.2875 20.6342L22.1527 15.4314C22.2792 15.3012 22.3626 15.1365 22.3919 14.959C22.4211 14.7815 22.3948 14.5994 22.3165 14.4368C22.2382 14.2742 22.1116 14.1386 21.9532 14.048C21.7948 13.9574 21.6122 13.9159 21.4293 13.929ZM12.9187 30.9423C12.7995 30.9487 12.6827 30.978 12.575 31.0287C12.4674 31.0793 12.3709 31.1503 12.2913 31.2375C12.2116 31.3247 12.1502 31.4264 12.1105 31.5369C12.0709 31.6473 12.0539 31.7644 12.0604 31.8813C12.067 31.9982 12.0969 32.1127 12.1485 32.2183C12.2002 32.3239 12.2725 32.4185 12.3615 32.4966C12.4504 32.5748 12.5541 32.635 12.6668 32.6738C12.7794 32.7126 12.8988 32.7293 13.018 32.7229H22.5783C22.6985 32.7246 22.818 32.7028 22.9296 32.6588C23.0412 32.6148 23.1428 32.5495 23.2285 32.4666C23.3142 32.3838 23.3822 32.2851 23.4286 32.1763C23.4751 32.0674 23.499 31.9506 23.499 31.8326C23.499 31.7146 23.4751 31.5978 23.4286 31.489C23.3822 31.3801 23.3142 31.2814 23.2285 31.1986C23.1428 31.1157 23.0412 31.0504 22.9296 31.0064C22.818 30.9624 22.6985 30.9406 22.5783 30.9423H13.018C12.9849 30.9405 12.9518 30.9405 12.9187 30.9423ZM13.8265 34.1697C13.7073 34.1761 13.5905 34.2054 13.4828 34.2561C13.3752 34.3067 13.2787 34.3776 13.1991 34.4648C13.1194 34.552 13.058 34.6538 13.0183 34.7642C12.9787 34.8747 12.9617 34.9917 12.9682 35.1087C12.9748 35.2256 13.0047 35.3401 13.0563 35.4457C13.108 35.5513 13.1804 35.6458 13.2693 35.724C13.3582 35.8021 13.4619 35.8624 13.5746 35.9012C13.6872 35.94 13.8066 35.9567 13.9258 35.9503H21.6705C21.7907 35.952 21.9102 35.9302 22.0218 35.8862C22.1334 35.8422 22.235 35.7769 22.3207 35.694C22.4064 35.6112 22.4744 35.5125 22.5208 35.4036C22.5673 35.2948 22.5912 35.178 22.5912 35.06C22.5912 34.942 22.5673 34.8252 22.5208 34.7163C22.4744 34.6075 22.4064 34.5088 22.3207 34.4259C22.235 34.3431 22.1334 34.2778 22.0218 34.2338C21.9102 34.1898 21.7907 34.168 21.6705 34.1697H13.9258C13.8927 34.1679 13.8596 34.1679 13.8265 34.1697ZM16.3371 37.411C16.2179 37.4173 16.1011 37.4467 15.9935 37.4973C15.8858 37.548 15.7894 37.6189 15.7097 37.7061C15.63 37.7933 15.5686 37.8951 15.529 38.0055C15.4894 38.116 15.4724 38.233 15.4789 38.35C15.4854 38.4669 15.5153 38.5814 15.567 38.687C15.6186 38.7926 15.691 38.8871 15.7799 38.9653C15.8688 39.0434 15.9726 39.1036 16.0852 39.1425C16.1979 39.1813 16.3172 39.198 16.4364 39.1916H19.1598C19.2801 39.1933 19.3995 39.1715 19.5112 39.1275C19.6228 39.0835 19.7244 39.0182 19.8101 38.9353C19.8957 38.8525 19.9638 38.7538 20.0102 38.6449C20.0566 38.5361 20.0805 38.4193 20.0805 38.3013C20.0805 38.1833 20.0566 38.0665 20.0102 37.9576C19.9638 37.8488 19.8957 37.7501 19.8101 37.6672C19.7244 37.5844 19.6228 37.5191 19.5112 37.4751C19.3995 37.4311 19.2801 37.4093 19.1598 37.411H16.4364C16.4033 37.4092 16.3702 37.4092 16.3371 37.411Z" fill="#384A11"/>
</svg>
