<svg width="37" height="35" viewBox="0 0 37 35" fill="none" xmlns="http://www.w3.org/2000/svg">
<path d="M27.1327 14.5213C26.1494 14.5213 25.2589 14.9217 24.6152 15.5683L24.5786 15.6028C23.9567 16.2443 23.573 17.1244 23.573 18.0969C23.573 19.0847 23.9716 19.9793 24.6152 20.6259C25.2589 21.2725 26.1494 21.673 27.1327 21.673C28.116 21.673 29.0065 21.2725 29.6502 20.6259C30.2938 19.9793 30.6924 19.0847 30.6924 18.0969C30.6924 17.1072 30.2947 16.2126 29.6529 15.5683C29.0065 14.9217 28.116 14.5213 27.1327 14.5213ZM13.3026 18.6614L17.3946 18.661V15.4597C17.3946 15.2951 17.4447 15.1422 17.5311 15.0154C17.893 14.3926 18.1775 13.7222 18.3682 13.0197C18.5566 12.3279 18.6573 11.5899 18.6573 10.8188C18.6573 8.51775 17.7287 6.43437 16.2289 4.92766L16.1946 4.89084C14.6971 3.40557 12.6377 2.48812 10.3643 2.48812C8.07421 2.48812 6.00037 3.42096 4.50057 4.92766L4.46391 4.96216C2.98545 6.46654 2.0722 8.53546 2.0722 10.8188C2.0722 13.1195 3.00076 15.2028 4.50057 16.7095C6.00037 18.2162 8.07421 19.1491 10.3643 19.1491C10.839 19.1491 11.2961 19.1113 11.7318 19.0391C12.1806 18.9645 12.6223 18.8517 13.0511 18.7043C13.1347 18.6759 13.2191 18.6624 13.3026 18.6614ZM18.1807 20.2404H13.4247C12.9625 20.3919 12.4803 20.5113 11.9834 20.5933C11.4478 20.6819 10.9063 20.7285 10.3643 20.7285C7.64171 20.7285 5.17436 19.6185 3.38963 17.8256C1.6049 16.0326 0.5 13.5539 0.5 10.8188C0.5 8.10657 1.58773 5.64652 3.34833 3.85637L3.38963 3.81162C5.17436 2.01868 7.64171 0.908691 10.3643 0.908691C13.0646 0.908691 15.5134 2.00143 17.2953 3.77013L17.3399 3.81162C19.1246 5.60456 20.2295 8.0828 20.2295 10.8188C20.2295 11.7144 20.107 12.5917 19.8782 13.4327C19.6624 14.2248 19.3543 14.9744 18.9668 15.6676V19.4507C18.9668 19.8866 18.6146 20.2404 18.1807 20.2404ZM14.711 8.1103C15.1449 8.1103 15.4971 8.46414 15.4971 8.90002C15.4971 9.3359 15.1449 9.68974 14.711 9.68974H6.0194C5.58551 9.68974 5.2333 9.3359 5.2333 8.90002C5.2333 8.46414 5.58551 8.1103 6.0194 8.1103H14.711ZM14.711 11.9479C15.1449 11.9479 15.4971 12.3018 15.4971 12.7376C15.4971 13.1735 15.1449 13.5274 14.711 13.5274H6.0194C5.58551 13.5274 5.2333 13.1735 5.2333 12.7376C5.2333 12.3018 5.58551 11.9479 6.0194 11.9479H14.711ZM22.3915 26.2947C21.6365 26.9698 21.0221 27.8005 20.6031 28.7329C20.2012 29.6275 19.9766 30.6219 19.9766 31.668V32.6237H34.2888V31.668C34.2888 30.6214 34.0642 29.627 33.6623 28.7329C33.2433 27.8001 32.6294 26.9693 31.8739 26.2952L31.8382 26.2612C31.4859 25.9591 31.0776 25.7731 30.6544 25.7115C30.2135 25.6472 29.7513 25.7153 29.3123 25.9204C28.6241 26.2421 27.878 26.4038 27.1332 26.4038C26.3888 26.4038 25.6422 26.2421 24.9535 25.9204C24.5145 25.7153 24.0523 25.6472 23.6147 25.7115L23.5911 25.7148C23.16 25.7815 22.7456 25.9773 22.3915 26.2947ZM19.1729 28.0849C19.6847 26.9465 20.4314 25.9344 21.3479 25.1167C21.9386 24.5927 22.6319 24.2678 23.3586 24.1554L23.3874 24.1508C24.1257 24.0421 24.8951 24.1517 25.6162 24.4892C26.0937 24.7121 26.613 24.8244 27.1332 24.8244C27.6534 24.8244 28.1731 24.7121 28.6497 24.4892C29.3708 24.1517 30.1402 24.0421 30.8785 24.1508C31.5959 24.2566 32.2827 24.5689 32.8674 25.0752L32.918 25.1167C33.8345 25.9344 34.5811 26.946 35.0925 28.0849C35.5858 29.1823 35.861 30.3962 35.861 31.668V33.4134C35.861 33.8493 35.5088 34.2031 35.0749 34.2031H19.1905C18.7566 34.2031 18.4044 33.8493 18.4044 33.4134V31.668C18.4044 30.3967 18.6796 29.1828 19.1729 28.0849ZM23.5043 14.4523C24.4329 13.5194 25.7164 12.9418 27.1327 12.9418C28.549 12.9418 29.8325 13.5194 30.7611 14.4523C31.6892 15.3879 32.2646 16.6774 32.2646 18.0969C32.2646 19.5197 31.6897 20.8092 30.7611 21.742C29.8325 22.6748 28.549 23.2524 27.1327 23.2524C25.7164 23.2524 24.4329 22.6748 23.5043 21.742C22.5757 20.8092 22.0008 19.5197 22.0008 18.0969C22.0008 16.6993 22.5586 15.4275 23.463 14.4975L23.5043 14.4523Z" fill="#141C3A" stroke="#141C3A" stroke-width="0.8"/>
</svg>
