<svg width="29" height="28" viewBox="0 0 29 28" fill="none" xmlns="http://www.w3.org/2000/svg">
<path d="M0 1.99617C0 0.894349 0.94052 0 2.09991 0H26.3132C27.4731 0 28.4132 0.894349 28.4132 1.99617V25.8709C28.4132 26.9731 27.4731 27.8668 26.3132 27.8668H2.09991C0.940631 27.8668 0 26.9732 0 25.8712V1.99585V1.99617Z" fill="#006699"/>
<path d="M8.63519 23.32V10.7743H4.38343V23.32H8.63563H8.63519ZM6.51019 9.06169C7.99256 9.06169 8.91543 8.09833 8.91543 6.8944C8.88769 5.66304 7.99256 4.72656 6.53839 4.72656C5.08321 4.72656 4.13281 5.66304 4.13281 6.89429C4.13281 8.09822 5.05535 9.06158 6.48234 9.06158H6.50986L6.51019 9.06169ZM10.9886 23.32H15.24V16.3147C15.24 15.9402 15.2678 15.5648 15.3801 15.2973C15.6873 14.5478 16.3869 13.772 17.5617 13.772C19.0998 13.772 19.7154 14.9224 19.7154 16.6091V23.32H23.9667V16.1267C23.9667 12.2733 21.8695 10.4802 19.0722 10.4802C16.7789 10.4802 15.7717 11.7373 15.2121 12.5936H15.2404V10.7747H10.9888C11.0443 11.9517 10.9885 23.3204 10.9885 23.3204L10.9886 23.32Z" fill="white"/>
</svg>
