<svg width="28" height="28" viewBox="0 0 28 28" fill="none" xmlns="http://www.w3.org/2000/svg">
<path d="M9.28966 13.925C9.28966 11.3616 11.3684 9.28298 13.9334 9.28298C16.4983 9.28298 18.5782 11.3616 18.5782 13.925C18.5782 16.4884 16.4983 18.5671 13.9334 18.5671C11.3684 18.5671 9.28966 16.4884 9.28966 13.925ZM6.77875 13.925C6.77875 17.8742 9.98187 21.0753 13.9334 21.0753C17.8849 21.0753 21.088 17.8742 21.088 13.925C21.088 9.97588 17.8849 6.77469 13.9334 6.77469C9.98187 6.77469 6.77875 9.97588 6.77875 13.925ZM19.6992 6.49118C19.6991 6.82167 19.797 7.14478 19.9806 7.41965C20.1643 7.69452 20.4253 7.9088 20.7308 8.03539C21.0362 8.16199 21.3724 8.19522 21.6968 8.13087C22.0211 8.06652 22.3191 7.90749 22.553 7.67389C22.787 7.44029 22.9463 7.14261 23.011 6.8185C23.0756 6.49438 23.0426 6.15838 22.9162 5.853C22.7898 5.54761 22.5756 5.28655 22.3007 5.10283C22.0258 4.91911 21.7026 4.82097 21.3719 4.82084H21.3712C20.928 4.82105 20.5029 4.99707 20.1894 5.31026C19.8759 5.62344 19.6996 6.04818 19.6992 6.49118ZM8.30429 25.2597C6.94584 25.1978 6.20749 24.9717 5.71681 24.7806C5.06629 24.5275 4.60214 24.2261 4.11414 23.739C3.62613 23.252 3.32406 22.7886 3.07192 22.1384C2.88064 21.6483 2.65436 20.9101 2.59261 19.5525C2.52506 18.0847 2.51157 17.6438 2.51157 13.9251C2.51157 10.2065 2.52618 9.76679 2.59261 8.29775C2.65448 6.94012 2.88243 6.20343 3.07192 5.71182C3.32517 5.06169 3.6268 4.59782 4.11414 4.11011C4.60147 3.6224 5.06517 3.3205 5.71681 3.06852C6.20726 2.87735 6.94584 2.65121 8.30429 2.5895C9.77298 2.52199 10.2142 2.50851 13.9334 2.50851C17.6526 2.50851 18.0942 2.5231 19.5641 2.5895C20.9226 2.65132 21.6597 2.87914 22.1516 3.06852C22.8021 3.3205 23.2663 3.62307 23.7543 4.11011C24.2423 4.59715 24.5433 5.06169 24.7965 5.71182C24.9878 6.20198 25.2141 6.94012 25.2758 8.29775C25.3434 9.76679 25.3568 10.2065 25.3568 13.9251C25.3568 17.6438 25.3434 18.0835 25.2758 19.5525C25.2139 20.9101 24.9866 21.6481 24.7965 22.1384C24.5433 22.7886 24.2416 23.2524 23.7543 23.739C23.267 24.2256 22.8021 24.5275 22.1516 24.7806C21.6612 24.9718 20.9226 25.1979 19.5641 25.2597C18.0954 25.3272 17.6543 25.3406 13.9334 25.3406C10.2125 25.3406 9.77253 25.3272 8.30429 25.2597ZM8.18892 0.0843299C6.70563 0.151838 5.69206 0.386893 4.8069 0.731119C3.8902 1.0866 3.11417 1.5635 2.33869 2.33729C1.56321 3.11107 1.08725 3.88787 0.731558 4.80402C0.387125 5.68921 0.15193 6.70161 0.0843805 8.18401C0.0157169 9.66875 0 10.1434 0 13.925C0 17.7066 0.0157169 18.1813 0.0843805 19.666C0.15193 21.1485 0.387125 22.1608 0.731558 23.046C1.08725 23.9616 1.56332 24.7393 2.33869 25.5128C3.11405 26.2862 3.8902 26.7624 4.8069 27.1189C5.69373 27.4631 6.70563 27.6982 8.18892 27.7657C9.67534 27.8332 10.1495 27.85 13.9334 27.85C17.7172 27.85 18.1922 27.8343 19.6778 27.7657C21.1612 27.6982 22.1741 27.4631 23.0598 27.1189C23.976 26.7624 24.7526 26.2865 25.5281 25.5128C26.3035 24.739 26.7785 23.9616 27.1352 23.046C27.4796 22.1608 27.7159 21.1484 27.7824 19.666C27.8499 18.1802 27.8656 17.7066 27.8656 13.925C27.8656 10.1434 27.8499 9.66875 27.7824 8.18401C27.7148 6.7015 27.4796 5.68865 27.1352 4.80402C26.7785 3.88842 26.3023 3.1123 25.5281 2.33729C24.7538 1.56228 23.976 1.0866 23.061 0.731119C22.1741 0.386893 21.1611 0.150724 19.6789 0.0843299C18.1933 0.0168214 17.7183 0 13.9345 0C10.1506 0 9.67534 0.0157074 8.18892 0.0843299Z" fill="url(#paint0_radial_1_2294)"/>
<path d="M9.28966 13.925C9.28966 11.3616 11.3684 9.28298 13.9334 9.28298C16.4983 9.28298 18.5782 11.3616 18.5782 13.925C18.5782 16.4884 16.4983 18.5671 13.9334 18.5671C11.3684 18.5671 9.28966 16.4884 9.28966 13.925ZM6.77875 13.925C6.77875 17.8742 9.98187 21.0753 13.9334 21.0753C17.8849 21.0753 21.088 17.8742 21.088 13.925C21.088 9.97588 17.8849 6.77469 13.9334 6.77469C9.98187 6.77469 6.77875 9.97588 6.77875 13.925ZM19.6992 6.49118C19.6991 6.82167 19.797 7.14478 19.9806 7.41965C20.1643 7.69452 20.4253 7.9088 20.7308 8.03539C21.0362 8.16199 21.3724 8.19522 21.6968 8.13087C22.0211 8.06652 22.3191 7.90749 22.553 7.67389C22.787 7.44029 22.9463 7.14261 23.011 6.8185C23.0756 6.49438 23.0426 6.15838 22.9162 5.853C22.7898 5.54761 22.5756 5.28655 22.3007 5.10283C22.0258 4.91911 21.7026 4.82097 21.3719 4.82084H21.3712C20.928 4.82105 20.5029 4.99707 20.1894 5.31026C19.8759 5.62344 19.6996 6.04818 19.6992 6.49118ZM8.30429 25.2597C6.94584 25.1978 6.20749 24.9717 5.71681 24.7806C5.06629 24.5275 4.60214 24.2261 4.11414 23.739C3.62613 23.252 3.32406 22.7886 3.07192 22.1384C2.88064 21.6483 2.65436 20.9101 2.59261 19.5525C2.52506 18.0847 2.51157 17.6438 2.51157 13.9251C2.51157 10.2065 2.52618 9.76679 2.59261 8.29775C2.65448 6.94012 2.88243 6.20343 3.07192 5.71182C3.32517 5.06169 3.6268 4.59782 4.11414 4.11011C4.60147 3.6224 5.06517 3.3205 5.71681 3.06852C6.20726 2.87735 6.94584 2.65121 8.30429 2.5895C9.77298 2.52199 10.2142 2.50851 13.9334 2.50851C17.6526 2.50851 18.0942 2.5231 19.5641 2.5895C20.9226 2.65132 21.6597 2.87914 22.1516 3.06852C22.8021 3.3205 23.2663 3.62307 23.7543 4.11011C24.2423 4.59715 24.5433 5.06169 24.7965 5.71182C24.9878 6.20198 25.2141 6.94012 25.2758 8.29775C25.3434 9.76679 25.3568 10.2065 25.3568 13.9251C25.3568 17.6438 25.3434 18.0835 25.2758 19.5525C25.2139 20.9101 24.9866 21.6481 24.7965 22.1384C24.5433 22.7886 24.2416 23.2524 23.7543 23.739C23.267 24.2256 22.8021 24.5275 22.1516 24.7806C21.6612 24.9718 20.9226 25.1979 19.5641 25.2597C18.0954 25.3272 17.6543 25.3406 13.9334 25.3406C10.2125 25.3406 9.77253 25.3272 8.30429 25.2597ZM8.18892 0.0843299C6.70563 0.151838 5.69206 0.386893 4.8069 0.731119C3.8902 1.0866 3.11417 1.5635 2.33869 2.33729C1.56321 3.11107 1.08725 3.88787 0.731558 4.80402C0.387125 5.68921 0.15193 6.70161 0.0843805 8.18401C0.0157169 9.66875 0 10.1434 0 13.925C0 17.7066 0.0157169 18.1813 0.0843805 19.666C0.15193 21.1485 0.387125 22.1608 0.731558 23.046C1.08725 23.9616 1.56332 24.7393 2.33869 25.5128C3.11405 26.2862 3.8902 26.7624 4.8069 27.1189C5.69373 27.4631 6.70563 27.6982 8.18892 27.7657C9.67534 27.8332 10.1495 27.85 13.9334 27.85C17.7172 27.85 18.1922 27.8343 19.6778 27.7657C21.1612 27.6982 22.1741 27.4631 23.0598 27.1189C23.976 26.7624 24.7526 26.2865 25.5281 25.5128C26.3035 24.739 26.7785 23.9616 27.1352 23.046C27.4796 22.1608 27.7159 21.1484 27.7824 19.666C27.8499 18.1802 27.8656 17.7066 27.8656 13.925C27.8656 10.1434 27.8499 9.66875 27.7824 8.18401C27.7148 6.7015 27.4796 5.68865 27.1352 4.80402C26.7785 3.88842 26.3023 3.1123 25.5281 2.33729C24.7538 1.56228 23.976 1.0866 23.061 0.731119C22.1741 0.386893 21.1611 0.150724 19.6789 0.0843299C18.1933 0.0168214 17.7183 0 13.9345 0C10.1506 0 9.67534 0.0157074 8.18892 0.0843299Z" fill="url(#paint1_radial_1_2294)"/>
<defs>
<radialGradient id="paint0_radial_1_2294" cx="0" cy="0" r="1" gradientUnits="userSpaceOnUse" gradientTransform="translate(3.70226 27.9816) scale(36.3777 36.3559)">
<stop offset="0.09" stop-color="#FA8F21"/>
<stop offset="0.78" stop-color="#D82D7E"/>
</radialGradient>
<radialGradient id="paint1_radial_1_2294" cx="0" cy="0" r="1" gradientUnits="userSpaceOnUse" gradientTransform="translate(16.9 29.2293) scale(28.6706 28.6535)">
<stop offset="0.64" stop-color="#8C3AAA" stop-opacity="0"/>
<stop offset="1" stop-color="#8C3AAA"/>
</radialGradient>
</defs>
</svg>
