<svg width="32" height="32" viewBox="0 0 32 32" fill="none" xmlns="http://www.w3.org/2000/svg">
<path d="M18.9381 10C19.9149 10.1906 20.8125 10.6683 21.5162 11.3719C22.2199 12.0756 22.6976 12.9733 22.8881 13.95M18.9381 6C20.9674 6.22544 22.8597 7.13417 24.3044 8.57701C25.749 10.0198 26.6601 11.911 26.8881 13.94M25.8881 21.92V24.92C25.8892 25.1985 25.8322 25.4742 25.7206 25.7293C25.6091 25.9845 25.4454 26.2136 25.2402 26.4019C25.035 26.5901 24.7927 26.7335 24.5289 26.8227C24.265 26.9119 23.9855 26.9451 23.7081 26.92C20.631 26.5856 17.6751 25.5341 15.0781 23.85C12.6619 22.3147 10.6135 20.2662 9.07812 17.85C7.38809 15.2412 6.33636 12.271 6.00812 9.18C5.98313 8.90347 6.01599 8.62476 6.10462 8.36162C6.19324 8.09849 6.33569 7.85669 6.52288 7.65162C6.71008 7.44655 6.93792 7.28271 7.19191 7.17052C7.44589 7.05833 7.72046 7.00026 7.99812 7H10.9981C11.4834 6.99522 11.9539 7.16708 12.3219 7.48353C12.6898 7.79999 12.9302 8.23945 12.9981 8.72C13.1247 9.68007 13.3596 10.6227 13.6981 11.53C13.8327 11.8879 13.8618 12.2769 13.782 12.6509C13.7023 13.0248 13.517 13.3681 13.2481 13.64L11.9781 14.91C13.4017 17.4135 15.4746 19.4864 17.9781 20.91L19.2481 19.64C19.52 19.3711 19.8633 19.1858 20.2372 19.1061C20.6112 19.0263 21.0002 19.0555 21.3581 19.19C22.2654 19.5286 23.2081 19.7634 24.1681 19.89C24.6539 19.9585 25.0975 20.2032 25.4146 20.5775C25.7318 20.9518 25.9003 21.4296 25.8881 21.92Z" stroke="black" stroke-width="2" stroke-linecap="round" stroke-linejoin="round"/>
</svg>
