<svg width="27" height="22" viewBox="0 0 27 22" fill="none" xmlns="http://www.w3.org/2000/svg">
<path d="M25.9167 2.57785C25.0746 2.94025 24.1893 3.19261 23.2827 3.32869C23.7065 3.25602 24.3302 2.49308 24.5785 2.18427C24.9556 1.71845 25.2431 1.18669 25.4262 0.615989C25.4262 0.573603 25.4686 0.513052 25.4262 0.482776C25.4048 0.471117 25.3809 0.465007 25.3566 0.465007C25.3322 0.465007 25.3083 0.471117 25.2869 0.482776C24.3025 1.01588 23.2547 1.42277 22.1685 1.6938C22.1307 1.70537 22.0904 1.7064 22.052 1.6968C22.0136 1.6872 21.9785 1.66733 21.9505 1.63931C21.866 1.53863 21.775 1.44356 21.6781 1.35471C21.235 0.95777 20.7324 0.632888 20.1885 0.39195C19.4543 0.0907537 18.6613 -0.0396876 17.8694 0.0104766C17.1009 0.0590071 16.3507 0.265117 15.6653 0.615989C14.9904 0.985911 14.3972 1.48846 13.9214 2.09344C13.421 2.71612 13.0597 3.43875 12.8618 4.21273C12.6986 4.94895 12.6801 5.70986 12.8073 6.45313C12.8073 6.58029 12.8073 6.59845 12.6983 6.58029C8.38101 5.9445 4.83876 4.41255 1.94441 1.12462C1.81725 0.979297 1.75064 0.979297 1.64771 1.12462C0.388239 3.03804 0.999807 6.0656 2.57414 7.56122C2.78607 7.76104 3.00405 7.9548 3.23415 8.13646C2.51233 8.08521 1.80813 7.8896 1.1633 7.56122C1.04219 7.4825 0.975586 7.52489 0.969531 7.67021C0.952366 7.87168 0.952366 8.07425 0.969531 8.27572C1.09587 9.24127 1.47639 10.1559 2.07217 10.9262C2.66795 11.6965 3.45761 12.2947 4.3604 12.6596C4.58048 12.7539 4.8098 12.8249 5.04463 12.8716C4.3764 13.0031 3.69105 13.0236 3.01616 12.9321C2.87084 12.9018 2.81634 12.9806 2.87084 13.1198C3.76094 15.5419 5.69253 16.2806 7.10943 16.6924C7.30319 16.7226 7.49696 16.7226 7.71494 16.7711C7.71494 16.7711 7.71494 16.7711 7.67861 16.8074C7.26081 17.5703 5.57143 18.085 4.79637 18.3515C3.38169 18.8596 1.87339 19.0538 0.376129 18.9206C0.139979 18.8843 0.0854826 18.8904 0.0249313 18.9206C-0.0356199 18.9509 0.0249313 19.0175 0.0915377 19.0781C0.394294 19.2779 0.69705 19.4535 1.01192 19.623C1.94928 20.1343 2.94026 20.5404 3.96682 20.8341C9.28322 22.2994 15.2657 21.2216 19.256 17.2555C22.3926 14.1431 23.4946 9.85006 23.4946 5.55092C23.4946 5.38743 23.6944 5.29055 23.8095 5.20578C24.603 4.58748 25.3026 3.85729 25.8864 3.03804C25.9875 2.91592 26.0393 2.76043 26.0317 2.60207C26.0317 2.51124 26.0317 2.52941 25.9167 2.57785Z" fill="#33CCFF"/>
</svg>
