<svg width="28" height="30" viewBox="0 0 28 30" fill="none" xmlns="http://www.w3.org/2000/svg">
<path fill-rule="evenodd" clip-rule="evenodd" d="M20.4692 10.5795C20.4692 12.0654 19.9143 13.4296 18.9922 14.4936L27.3357 28.2539C27.675 28.8125 27.4714 29.5231 26.8846 29.8461C26.2977 30.1653 25.5512 29.9715 25.2119 29.4167L20.9683 22.4169C19.2716 23.7013 17.2755 24.4499 15.2316 24.6628V25.7686C15.2316 26.4146 14.6807 26.939 14.002 26.939C13.3193 26.939 12.7684 26.4146 12.7684 25.7686V24.6628C10.7245 24.4499 8.7284 23.7013 7.03174 22.4169L2.78812 29.4167C2.44879 29.9715 1.70226 30.1653 1.11542 29.8461C0.528573 29.5231 0.324974 28.8125 0.664305 28.2539L9.00785 14.4974C8.08567 13.4334 7.53076 12.0654 7.53076 10.5795C7.53076 8.88087 8.25733 7.33802 9.42702 6.22459C10.3213 5.37336 11.479 4.76915 12.7684 4.53354V1.17044C12.7684 0.524416 13.3193 0 14.002 0C14.6807 0 15.2316 0.524416 15.2316 1.17044V4.53354C16.525 4.76915 17.6787 5.37336 18.573 6.22459C19.7467 7.33802 20.4692 8.88087 20.4692 10.5795ZM16.8364 13.2776C17.559 12.5898 18.0101 11.6322 18.0101 10.5795C18.0101 9.52689 17.559 8.57306 16.8364 7.88144C16.1098 7.18982 15.1078 6.76421 14.002 6.76421C12.8922 6.76421 11.8902 7.18982 11.1676 7.88144C10.441 8.57306 9.98991 9.52689 9.98991 10.5795C9.98991 11.6322 10.441 12.5898 11.1676 13.2776C11.8902 13.9692 12.8922 14.3948 14.002 14.3948C15.1078 14.3948 16.1098 13.9692 16.8364 13.2776ZM17.0759 15.9985C16.1617 16.4697 15.1118 16.7395 14.002 16.7395C12.8882 16.7395 11.8383 16.4697 10.9241 15.9985L8.28128 20.3572C9.58671 21.4365 11.1516 22.0863 12.7684 22.3029V21.3452C12.7684 20.6992 13.3193 20.1748 14.002 20.1748C14.6807 20.1748 15.2316 20.6992 15.2316 21.3452V22.3029C16.8484 22.0863 18.4133 21.4365 19.7227 20.3572L17.0759 15.9985Z" fill="#69237B"/>
</svg>
