<svg width="30" height="21" viewBox="0 0 30 21" fill="none" xmlns="http://www.w3.org/2000/svg">
<path d="M28.4642 3.18518C28.1312 1.93336 27.1462 0.945818 25.8929 0.607364C23.6269 2.21079e-07 14.535 0 14.535 0C14.535 0 5.44774 2.21079e-07 3.17707 0.607364C1.92844 0.941182 0.943411 1.92873 0.605818 3.18518C0 5.457 0 10.2 0 10.2C0 10.2 0 14.943 0.605818 17.2148C0.938786 18.4666 1.92382 19.4542 3.17707 19.7926C5.44774 20.4 14.535 20.4 14.535 20.4C14.535 20.4 23.6269 20.4 25.8929 19.7926C27.1416 19.4588 28.1266 18.4713 28.4642 17.2148C29.07 14.943 29.07 10.2 29.07 10.2C29.07 10.2 29.07 5.457 28.4642 3.18518Z" fill="#FF3000"/>
<path d="M11.6308 14.5721L19.1827 10.2L11.6308 5.82791V14.5721Z" fill="white"/>
</svg>
